#N canvas 886 184 671 669 10;
#X obj 267 557 dac~;
#X obj 280 325 osc~ 440;
#X obj 385 305 vsl 15 128 0 127 0 0 empty empty empty 0 -9 0 10 -262144
-1 -1 1200 1;
#X floatatom 383 452 5 0 0 0 - - -, f 5;
#X obj 380 481 / 127;
#X floatatom 374 508 5 0 0 0 - - -, f 5;
#X obj 276 227 line~;
#X obj 277 427 *~;
#X obj 273 177 mtof;
#X obj 268 16 vsl 15 128 0 127 0 0 empty empty empty 0 -9 0 10 -262144
-1 -1 10800 1;
#X msg 363 535 \$1 5;
#X obj 354 560 line~;
#X obj 268 289 +~;
#X obj 97 200 bng 15 250 50 0 empty empty empty 17 7 0 10 -262144 -1
-1;
#X msg 274 206 \$1 300;
#X obj 379 125 mtof;
#X obj 494 41 vsl 15 128 0 127 0 0 empty empty empty 0 -9 0 10 -262144
-1 -1 1400 1;
#X obj 353 172 pack f f;
#X msg 353 209 \$1 \$2;
#X obj 459 228 line~;
#X obj 348 255 osc~ 990;
#X obj 512 402 mtof;
#X obj 518 265 vsl 15 128 0 127 0 0 empty empty empty 0 -9 0 10 -262144
-1 -1 900 1;
#X obj 501 464 *~;
#X obj 528 458 line~;
#X obj 154 265 metro 1000;
#X obj 153 242 tgl 15 0 empty empty empty 17 7 0 10 -262144 -1 -1 1
1;
#X obj 138 184 random 2;
#X obj 435 259 loadbang;
#X msg 406 284 12;
#X msg 527 36 \; pd dsp 0;
#X msg 526 73 \; pd dsp 1;
#X obj 157 13 tgl 15 0 empty empty empty 17 7 0 10 -262144 -1 -1 1
1;
#X msg 118 51 1;
#X obj 155 88 random 8000;
#X obj 139 61 metro 8000;
#X msg 518 437 \$1 120;
#X obj 177 337 random 127;
#X obj 154 118 random 127;
#X obj 427 11 random 127;
#X obj 211 228 random 2000;
#X connect 1 0 7 0;
#X connect 2 0 3 0;
#X connect 3 0 4 0;
#X connect 4 0 5 0;
#X connect 5 0 10 0;
#X connect 6 0 12 0;
#X connect 7 0 0 0;
#X connect 7 0 0 1;
#X connect 8 0 14 0;
#X connect 9 0 8 0;
#X connect 10 0 11 0;
#X connect 11 0 7 1;
#X connect 12 0 1 0;
#X connect 13 0 37 0;
#X connect 13 0 40 0;
#X connect 14 0 6 0;
#X connect 15 0 17 0;
#X connect 16 0 15 0;
#X connect 17 0 18 0;
#X connect 18 0 19 0;
#X connect 19 0 20 0;
#X connect 20 0 23 0;
#X connect 21 0 36 0;
#X connect 22 0 21 0;
#X connect 23 0 12 1;
#X connect 24 0 23 1;
#X connect 25 0 37 0;
#X connect 26 0 25 0;
#X connect 27 0 26 0;
#X connect 28 0 29 0;
#X connect 28 0 33 0;
#X connect 29 0 2 0;
#X connect 32 0 35 0;
#X connect 33 0 32 0;
#X connect 34 0 17 1;
#X connect 34 0 35 1;
#X connect 35 0 13 0;
#X connect 35 0 27 0;
#X connect 35 0 34 0;
#X connect 35 0 38 0;
#X connect 35 0 39 0;
#X connect 36 0 24 0;
#X connect 37 0 22 0;
#X connect 38 0 9 0;
#X connect 39 0 16 0;
#X connect 40 0 25 1;
