#N canvas 685 197 671 669 10;
#X obj 267 557 dac~;
#X obj 298 358 osc~ 440;
#X obj 386 312 vsl 15 128 0 127 0 0 empty empty empty 0 -9 0 10 -262144
-1 -1 2800 1;
#X floatatom 383 452 5 0 0 0 - - -, f 5;
#X obj 380 481 / 127;
#X floatatom 374 508 5 0 0 0 - - -, f 5;
#X obj 276 227 line~;
#X obj 285 422 *~;
#X obj 273 177 mtof;
#X obj 267 33 vsl 15 128 0 127 0 0 empty empty empty 0 -9 0 10 -262144
-1 -1 7500 1;
#X obj 150 65 metro 1000;
#X obj 151 44 tgl 15 0 empty empty empty 17 7 0 10 -262144 -1 -1 1
1;
#X msg 363 535 \$1 5;
#X obj 354 560 line~;
#X obj 313 261 *~;
#X obj 356 255 line~;
#X msg 369 225 \$1 2000;
#X obj 155 88 random 12000;
#X obj 297 298 +~;
#X obj 84 92 bng 15 250 50 0 empty empty empty 17 7 0 10 -262144 -1
-1;
#X msg 274 206 \$1 300;
#X obj 154 118 random 64;
#X obj 156 139 + 32;
#X obj 330 176 osc~ 990;
#X obj 427 11 random 127;
#X obj 305 391 +~;
#X obj 500 185 mtof;
#X obj 494 41 vsl 15 128 0 127 0 0 empty empty empty 0 -9 0 10 -262144
-1 -1 9700 1;
#X obj 320 121 *~ 0.8;
#X connect 1 0 25 1;
#X connect 2 0 3 0;
#X connect 3 0 4 0;
#X connect 4 0 5 0;
#X connect 5 0 12 0;
#X connect 6 0 18 0;
#X connect 6 0 28 0;
#X connect 7 0 0 0;
#X connect 7 0 0 1;
#X connect 8 0 20 0;
#X connect 9 0 8 0;
#X connect 10 0 17 0;
#X connect 10 0 19 0;
#X connect 10 0 21 0;
#X connect 10 0 24 0;
#X connect 11 0 10 0;
#X connect 12 0 13 0;
#X connect 13 0 7 1;
#X connect 14 0 18 1;
#X connect 15 0 14 1;
#X connect 16 0 15 0;
#X connect 17 0 10 1;
#X connect 18 0 1 0;
#X connect 20 0 6 0;
#X connect 21 0 22 0;
#X connect 22 0 9 0;
#X connect 23 0 14 0;
#X connect 24 0 27 0;
#X connect 25 0 7 0;
#X connect 26 0 16 0;
#X connect 27 0 26 0;
#X connect 28 0 23 0;
